<svg width="46" height="22" viewBox="0 0 46 22" fill="none" xmlns="http://www.w3.org/2000/svg">
<path d="M0.520424 9.74414L0.522022 9.74245L9.79254 0.51664C10.4871 -0.174498 11.6104 -0.171926 12.3017 0.522671C12.9929 1.21718 12.9903 2.34051 12.2958 3.03174L6.07152 9.22581H43.6452C44.6251 9.22581 45.4194 10.0201 45.4194 11C45.4194 11.9799 44.6251 12.7742 43.6452 12.7742H6.07161L12.2957 18.9683C12.9902 19.6595 12.9928 20.7828 12.3016 21.4773C11.6103 22.172 10.4869 22.1744 9.79245 21.4834L0.521931 12.2575L0.520336 12.2559C-0.17453 11.5623 -0.17231 10.4354 0.520424 9.74414Z" fill="#F6F1ED"/>
</svg>
