<svg width="46" height="22" viewBox="0 0 46 22" fill="none" xmlns="http://www.w3.org/2000/svg">
<path d="M44.899 9.74414L44.8974 9.74245L35.6269 0.51664C34.9324 -0.174498 33.8091 -0.171926 33.1177 0.522671C32.4265 1.21718 32.4292 2.34051 33.1237 3.03174L39.3479 9.22581H1.77419C0.794307 9.22581 0 10.0201 0 11C0 11.9799 0.794307 12.7742 1.77419 12.7742H39.3478L33.1238 18.9683C32.4293 19.6595 32.4266 20.7828 33.1178 21.4773C33.8091 22.172 34.9326 22.1744 35.627 21.4834L44.8975 12.2575L44.8991 12.2559C45.594 11.5623 45.5917 10.4354 44.899 9.74414Z" fill="white"/>
</svg>
