<?xml version="1.0" encoding="UTF-8"?>
<svg xmlns="http://www.w3.org/2000/svg" xmlns:xlink="http://www.w3.org/1999/xlink" width="20px" height="20px" viewBox="0 0 20 20" version="1.1">
<g id="surface1">
<path style=" fill:#CD8973;" d="M 0.625 3.929688 L 0.625 11.476562 C 0.625 12.367188 1.351562 13.085938 2.238281 13.085938 L 3.074219 13.085938 L 3.074219 14.988281 C 3.074219 15.109375 3.148438 15.21875 3.257812 15.269531 C 3.296875 15.289062 3.34375 15.300781 3.386719 15.300781 C 3.460938 15.300781 3.53125 15.273438 3.585938 15.226562 L 6.195312 13.085938 L 14.25 13.085938 C 15.136719 13.085938 15.863281 12.367188 15.863281 11.476562 L 15.863281 3.929688 C 15.863281 3.039062 15.136719 2.320312 14.25 2.320312 L 2.238281 2.320312 C 1.351562 2.320312 0.625 3.039062 0.625 3.929688 Z M 13.117188 7.882812 L 3.371094 7.882812 C 3.199219 7.882812 3.058594 7.742188 3.058594 7.570312 C 3.058594 7.398438 3.199219 7.257812 3.371094 7.257812 L 13.117188 7.257812 C 13.289062 7.257812 13.429688 7.398438 13.429688 7.570312 C 13.429688 7.742188 13.289062 7.882812 13.117188 7.882812 Z M 13.117188 5.714844 L 3.371094 5.714844 C 3.199219 5.714844 3.058594 5.574219 3.058594 5.402344 C 3.058594 5.230469 3.199219 5.089844 3.371094 5.089844 L 13.117188 5.089844 C 13.289062 5.089844 13.429688 5.230469 13.429688 5.402344 C 13.429688 5.574219 13.289062 5.714844 13.117188 5.714844 Z M 3.371094 9.429688 L 10.027344 9.429688 C 10.199219 9.429688 10.339844 9.570312 10.339844 9.742188 C 10.339844 9.914062 10.199219 10.054688 10.027344 10.054688 L 3.371094 10.054688 C 3.199219 10.054688 3.058594 9.914062 3.058594 9.742188 C 3.058594 9.570312 3.199219 9.429688 3.371094 9.429688 Z M 3.371094 9.429688 "/>
<path style="fill:#CD8973;" d="M 17.996094 6.953125 L 16.753906 6.953125 C 16.582031 6.953125 16.441406 7.09375 16.441406 7.265625 C 16.441406 7.4375 16.582031 7.578125 16.753906 7.578125 L 17.996094 7.578125 C 18.414062 7.578125 18.746094 7.914062 18.75 8.328125 L 18.75 14.496094 C 18.746094 14.910156 18.414062 15.246094 17.996094 15.25 L 17.054688 15.25 C 16.882812 15.25 16.742188 15.386719 16.742188 15.5625 L 16.742188 16.710938 L 15.050781 15.320312 C 14.992188 15.273438 14.921875 15.25 14.851562 15.25 L 8.179688 15.25 C 7.765625 15.246094 7.429688 14.910156 7.429688 14.496094 L 7.429688 13.957031 C 7.429688 13.785156 7.289062 13.644531 7.117188 13.644531 C 6.941406 13.644531 6.804688 13.785156 6.804688 13.957031 L 6.804688 14.496094 C 6.804688 15.257812 7.417969 15.871094 8.179688 15.875 L 14.738281 15.875 L 16.855469 17.613281 C 16.949219 17.6875 17.078125 17.703125 17.1875 17.652344 C 17.296875 17.601562 17.367188 17.492188 17.367188 17.371094 L 17.367188 15.875 L 17.996094 15.875 C 18.757812 15.871094 19.371094 15.257812 19.375 14.496094 L 19.375 8.328125 C 19.371094 7.570312 18.757812 6.957031 17.996094 6.953125 Z M 17.996094 6.953125 "/>
</g>
</svg>