<svg width="21" height="20" viewBox="0 0 21 20" fill="none" xmlns="http://www.w3.org/2000/svg">
<path d="M15.4996 0H5.49988C2.75019 0 0.5 2.25019 0.5 4.99988V15.0001C0.5 17.7491 2.75019 20 5.49988 20H15.4996C18.2493 20 20.4995 17.7491 20.4995 15.0001V4.99988C20.4995 2.25019 18.2493 0 15.4996 0ZM18.8328 15.0001C18.8328 16.8376 17.3381 18.3333 15.4996 18.3333H5.49988C3.66218 18.3333 2.16671 16.8376 2.16671 15.0001V4.99988C2.16671 3.16193 3.66218 1.66671 5.49988 1.66671H15.4996C17.3381 1.66671 18.8328 3.16193 18.8328 4.99988V15.0001Z" fill="#E4D4CF"/>
<path d="M15.9172 5.83295C16.6075 5.83295 17.1672 5.27332 17.1672 4.58298C17.1672 3.89264 16.6075 3.33301 15.9172 3.33301C15.2269 3.33301 14.6672 3.89264 14.6672 4.58298C14.6672 5.27332 15.2269 5.83295 15.9172 5.83295Z" fill="#E4D4CF"/>
<path d="M10.4999 5C7.73793 5 5.5 7.23818 5.5 9.99988C5.5 12.7606 7.73793 15.0002 10.4999 15.0002C13.261 15.0002 15.4998 12.7606 15.4998 9.99988C15.4998 7.23818 13.261 5 10.4999 5ZM10.4999 13.3335C8.65915 13.3335 7.16671 11.8411 7.16671 9.99988C7.16671 8.15866 8.65915 6.66671 10.4999 6.66671C12.3406 6.66671 13.833 8.15866 13.833 9.99988C13.833 11.8411 12.3406 13.3335 10.4999 13.3335Z" fill="#E4D4CF"/>
</svg>
