<svg width="16" height="17" viewBox="0 0 16 17" fill="none" xmlns="http://www.w3.org/2000/svg">
<path fill-rule="evenodd" clip-rule="evenodd" d="M3.91343 4.14634H2.81175C2.44474 4.14636 2.09137 4.28542 1.82279 4.53554C1.55421 4.78565 1.39037 5.12824 1.36426 5.49432L0.65358 15.4455C0.639403 15.6443 0.666313 15.8439 0.732633 16.0318C0.798954 16.2197 0.903263 16.3919 1.03906 16.5378C1.17486 16.6836 1.33924 16.7999 1.52195 16.8794C1.70466 16.9589 1.9018 17 2.10107 17H13.5881C13.7873 16.9999 13.9844 16.9587 14.1671 16.8792C14.3497 16.7996 14.514 16.6833 14.6498 16.5375C14.7856 16.3917 14.8899 16.2195 14.9563 16.0316C15.0226 15.8438 15.0496 15.6443 15.0356 15.4455L14.3249 5.49432C14.2988 5.12824 14.1349 4.78565 13.8664 4.53554C13.5978 4.28542 13.2444 4.14636 12.8774 4.14634H11.7836V3.93902C11.7836 2.89433 11.3686 1.89242 10.6299 1.15371C9.89118 0.415003 8.88927 0 7.84458 0C5.7486 0 3.81143 1.66932 3.90556 3.93902L3.91343 4.14634ZM11.7836 5.39024V8.5C11.7836 8.66495 11.7181 8.82315 11.6014 8.93979C11.4848 9.05642 11.3266 9.12195 11.1617 9.12195C10.9967 9.12195 10.8385 9.05642 10.7219 8.93979C10.6052 8.82315 10.5397 8.66495 10.5397 8.5V5.39024H5.14946V8.5C5.14946 8.66495 5.08393 8.82315 4.96729 8.93979C4.85065 9.05642 4.69246 9.12195 4.52751 9.12195C4.36255 9.12195 4.20436 9.05642 4.08772 8.93979C3.97108 8.82315 3.90556 8.66495 3.90556 8.5C3.90556 8.5 3.95946 7.04671 3.94163 5.39024H2.81175C2.7594 5.39032 2.70902 5.41019 2.67072 5.44588C2.63241 5.48156 2.60903 5.53042 2.60526 5.58263L1.89417 15.5339C1.89211 15.5623 1.89594 15.5908 1.90541 15.6177C1.91488 15.6446 1.92979 15.6692 1.94921 15.69C1.96862 15.7109 1.99213 15.7275 2.01825 15.7389C2.04438 15.7503 2.07257 15.7561 2.10107 15.7561H13.5881C13.6165 15.756 13.6447 15.7501 13.6708 15.7386C13.6968 15.7272 13.7203 15.7106 13.7397 15.6898C13.7591 15.669 13.774 15.6444 13.7835 15.6176C13.793 15.5907 13.7969 15.5622 13.795 15.5339L13.0839 5.58263C13.0801 5.53042 13.0567 5.48156 13.0184 5.44588C12.9801 5.41019 12.9298 5.39032 12.8774 5.39024H11.7836ZM10.5397 4.14634V3.93902C10.5397 3.22423 10.2558 2.53872 9.75032 2.03329C9.24489 1.52785 8.55937 1.2439 7.84458 1.2439C7.12979 1.2439 6.44427 1.52785 5.93884 2.03329C5.43341 2.53872 5.14946 3.22423 5.14946 3.93902V4.14634H10.5397Z" fill="#222222"/>
</svg>
