<svg width="74" height="53" viewBox="0 0 74 53" fill="none" xmlns="http://www.w3.org/2000/svg">
<path opacity="0.1" d="M13.8133 18.3798C12.1853 14.2231 9.62 10.1164 6.19133 6.16C5.106 4.90796 4.958 3.10504 5.846 1.70277C6.53667 0.600975 7.67133 0 8.90467 0C9.25 0 9.59533 0.0250397 9.94067 0.150242C17.1927 2.30374 34.1387 9.94113 34.6073 34.4309C34.78 43.8712 27.972 51.9844 19.1167 52.9109C14.208 53.4117 9.324 51.784 5.698 48.4787C3.90464 46.8276 2.47128 44.8141 1.48999 42.5673C0.508697 40.3205 0.0011672 37.8902 0 35.4325C0 27.1691 5.772 19.9324 13.8133 18.3798ZM58.4847 52.9109C53.6007 53.4117 48.7167 51.784 45.0907 48.4787C43.2972 46.8277 41.8638 44.8142 40.8824 42.5674C39.9011 40.3206 39.3937 37.8902 39.3927 35.4325C39.3927 27.1691 45.1647 19.9324 53.206 18.3798C51.578 14.2231 49.0127 10.1164 45.584 6.16C44.4987 4.90796 44.3507 3.10504 45.2387 1.70277C45.9293 0.600975 47.064 0 48.2973 0C48.6427 0 48.988 0.0250397 49.3333 0.150242C56.5853 2.30374 73.5313 9.94113 74 34.4309V34.7815C74 44.0715 67.266 51.9844 58.4847 52.9109Z" fill="#CD8973"/>
</svg>
