<svg width="15" height="17" viewBox="0 0 15 17" fill="none" xmlns="http://www.w3.org/2000/svg">
<path fill-rule="evenodd" clip-rule="evenodd" d="M7.66405 0C10.1737 0 12.2106 2.03684 12.2106 4.54651C12.2106 7.05619 10.1737 9.09302 7.66405 9.09302C5.15438 9.09302 3.11754 7.05619 3.11754 4.54651C3.11754 2.03684 5.15438 0 7.66405 0ZM7.66405 1.18605C5.80907 1.18605 4.30359 2.69153 4.30359 4.54651C4.30359 6.40149 5.80907 7.90698 7.66405 7.90698C9.51903 7.90698 11.0245 6.40149 11.0245 4.54651C11.0245 2.69153 9.51903 1.18605 7.66405 1.18605ZM14.978 15.6163C14.978 15.9833 14.8322 16.3352 14.5727 16.5947C14.3132 16.8542 13.9613 17 13.5943 17H1.73382C1.36683 17 1.01488 16.8542 0.75538 16.5947C0.495882 16.3352 0.350098 15.9833 0.350098 15.6163C0.350098 13.9911 0.995714 12.4324 2.14492 11.2832C3.29413 10.134 4.85278 9.48837 6.478 9.48837H8.8501C10.4753 9.48837 12.034 10.134 13.1832 11.2832C14.3324 12.4324 14.978 13.9911 14.978 15.6163ZM14.4016 16.1927C14.3913 16.1967 14.385 16.2014 14.385 16.2093L14.4016 16.1927ZM1.53614 15.6163C1.53614 15.7254 1.6247 15.814 1.73382 15.814H13.5943C13.6467 15.814 13.697 15.7931 13.7341 15.7561C13.7711 15.719 13.792 15.6687 13.792 15.6163C13.792 14.3056 13.2713 13.0486 12.3445 12.1219C11.4177 11.1951 10.1608 10.6744 8.8501 10.6744H6.478C5.16734 10.6744 3.91036 11.1951 2.98358 12.1219C2.0568 13.0486 1.53614 14.3056 1.53614 15.6163Z" fill="#222222"/>
</svg>
